<mxfile host="app.diagrams.net" agent="Mozilla/5.0 (Windows NT 10.0; Win64; x64; rv:135.0) Gecko/20100101 Firefox/135.0" version="26.0.16">
  <diagram name="PÃ¡gina-1" id="iAuj64Cp3KwdbUfG-nfa">
    <mxGraphModel dx="960" dy="781" grid="1" gridSize="10" guides="1" tooltips="1" connect="1" arrows="1" fold="1" page="1" pageScale="1" pageWidth="850" pageHeight="1100" math="0" shadow="0">
      <root>
        <mxCell id="0" />
        <mxCell id="1" parent="0" />
        <mxCell id="Y2lKxQfsMpX_afz4rOUs-2" value="Boleto" style="rounded=1;arcSize=10;whiteSpace=wrap;html=1;align=center;strokeColor=default;" vertex="1" parent="1">
          <mxGeometry x="300" y="790" width="100" height="40" as="geometry" />
        </mxCell>
        <mxCell id="Y2lKxQfsMpX_afz4rOUs-20" style="edgeStyle=orthogonalEdgeStyle;rounded=0;orthogonalLoop=1;jettySize=auto;html=1;exitX=0.5;exitY=1;exitDx=0;exitDy=0;strokeColor=default;endArrow=none;startFill=0;" edge="1" parent="1" source="Y2lKxQfsMpX_afz4rOUs-3">
          <mxGeometry relative="1" as="geometry">
            <mxPoint x="350" y="630" as="targetPoint" />
            <mxPoint x="460" y="630" as="sourcePoint" />
            <Array as="points">
              <mxPoint x="440" y="630" />
              <mxPoint x="350" y="630" />
            </Array>
          </mxGeometry>
        </mxCell>
        <mxCell id="Y2lKxQfsMpX_afz4rOUs-3" value="Terminal" style="rounded=1;arcSize=10;whiteSpace=wrap;html=1;align=center;" vertex="1" parent="1">
          <mxGeometry x="390" y="550" width="100" height="40" as="geometry" />
        </mxCell>
        <mxCell id="Y2lKxQfsMpX_afz4rOUs-23" style="edgeStyle=orthogonalEdgeStyle;rounded=0;orthogonalLoop=1;jettySize=auto;html=1;entryX=1;entryY=0.5;entryDx=0;entryDy=0;strokeColor=#000000;" edge="1" parent="1" source="Y2lKxQfsMpX_afz4rOUs-4" target="Y2lKxQfsMpX_afz4rOUs-22">
          <mxGeometry relative="1" as="geometry" />
        </mxCell>
        <mxCell id="Y2lKxQfsMpX_afz4rOUs-4" value="Cliente" style="rounded=1;arcSize=10;whiteSpace=wrap;html=1;align=center;gradientColor=none;strokeColor=#000000;" vertex="1" parent="1">
          <mxGeometry x="570" y="270" width="100" height="40" as="geometry" />
        </mxCell>
        <mxCell id="Y2lKxQfsMpX_afz4rOUs-17" style="edgeStyle=orthogonalEdgeStyle;rounded=0;orthogonalLoop=1;jettySize=auto;html=1;exitX=0.5;exitY=1;exitDx=0;exitDy=0;strokeColor=#000000;entryX=0.5;entryY=0;entryDx=0;entryDy=0;" edge="1" parent="1" source="Y2lKxQfsMpX_afz4rOUs-5" target="Y2lKxQfsMpX_afz4rOUs-27">
          <mxGeometry relative="1" as="geometry">
            <mxPoint x="360" y="470" as="targetPoint" />
          </mxGeometry>
        </mxCell>
        <mxCell id="Y2lKxQfsMpX_afz4rOUs-5" value="Viaje" style="rounded=1;arcSize=10;whiteSpace=wrap;html=1;align=center;strokeColor=#000000;" vertex="1" parent="1">
          <mxGeometry x="310" y="350" width="100" height="40" as="geometry" />
        </mxCell>
        <mxCell id="Y2lKxQfsMpX_afz4rOUs-19" style="edgeStyle=orthogonalEdgeStyle;rounded=0;orthogonalLoop=1;jettySize=auto;html=1;exitX=0.5;exitY=1;exitDx=0;exitDy=0;entryX=0.5;entryY=0;entryDx=0;entryDy=0;strokeColor=default;" edge="1" parent="1" source="Y2lKxQfsMpX_afz4rOUs-6" target="Y2lKxQfsMpX_afz4rOUs-2">
          <mxGeometry relative="1" as="geometry">
            <mxPoint x="240" y="630" as="sourcePoint" />
            <Array as="points">
              <mxPoint x="260" y="630" />
              <mxPoint x="350" y="630" />
            </Array>
          </mxGeometry>
        </mxCell>
        <mxCell id="Y2lKxQfsMpX_afz4rOUs-6" value="Autobus" style="rounded=1;arcSize=10;whiteSpace=wrap;html=1;align=center;" vertex="1" parent="1">
          <mxGeometry x="210" y="550" width="100" height="40" as="geometry" />
        </mxCell>
        <mxCell id="Y2lKxQfsMpX_afz4rOUs-25" style="edgeStyle=orthogonalEdgeStyle;rounded=0;orthogonalLoop=1;jettySize=auto;html=1;entryX=0.5;entryY=0;entryDx=0;entryDy=0;strokeColor=#000000;exitX=0;exitY=0.5;exitDx=0;exitDy=0;" edge="1" parent="1" source="Y2lKxQfsMpX_afz4rOUs-22" target="Y2lKxQfsMpX_afz4rOUs-5">
          <mxGeometry relative="1" as="geometry" />
        </mxCell>
        <mxCell id="Y2lKxQfsMpX_afz4rOUs-22" value="Requiere" style="shape=rhombus;perimeter=rhombusPerimeter;whiteSpace=wrap;html=1;align=center;" vertex="1" parent="1">
          <mxGeometry x="410" y="260" width="120" height="60" as="geometry" />
        </mxCell>
        <mxCell id="Y2lKxQfsMpX_afz4rOUs-27" value="Asgina" style="shape=rhombus;perimeter=rhombusPerimeter;whiteSpace=wrap;html=1;align=center;strokeColor=#000000;" vertex="1" parent="1">
          <mxGeometry x="300" y="430" width="120" height="60" as="geometry" />
        </mxCell>
        <mxCell id="Y2lKxQfsMpX_afz4rOUs-28" style="edgeStyle=orthogonalEdgeStyle;rounded=0;orthogonalLoop=1;jettySize=auto;html=1;entryX=0.5;entryY=0;entryDx=0;entryDy=0;strokeColor=#000000;exitX=1;exitY=0.5;exitDx=0;exitDy=0;" edge="1" parent="1" source="Y2lKxQfsMpX_afz4rOUs-27" target="Y2lKxQfsMpX_afz4rOUs-3">
          <mxGeometry relative="1" as="geometry">
            <mxPoint x="510" y="490" as="sourcePoint" />
            <mxPoint x="460" y="550" as="targetPoint" />
          </mxGeometry>
        </mxCell>
        <mxCell id="Y2lKxQfsMpX_afz4rOUs-29" style="edgeStyle=orthogonalEdgeStyle;rounded=0;orthogonalLoop=1;jettySize=auto;html=1;entryX=0.5;entryY=0;entryDx=0;entryDy=0;strokeColor=#000000;" edge="1" parent="1" target="Y2lKxQfsMpX_afz4rOUs-6">
          <mxGeometry relative="1" as="geometry">
            <mxPoint x="300" y="460" as="sourcePoint" />
            <mxPoint x="270" y="520" as="targetPoint" />
            <Array as="points">
              <mxPoint x="260" y="460" />
            </Array>
          </mxGeometry>
        </mxCell>
        <mxCell id="Y2lKxQfsMpX_afz4rOUs-31" value="&lt;div&gt;Correo&lt;/div&gt;" style="ellipse;whiteSpace=wrap;html=1;align=center;fontStyle=4;fontSize=9;" vertex="1" parent="1">
          <mxGeometry x="670" y="220" width="70" height="20" as="geometry" />
        </mxCell>
        <mxCell id="Y2lKxQfsMpX_afz4rOUs-33" value="&lt;div&gt;Nombre&lt;/div&gt;" style="ellipse;align=center;fontStyle=0;fontSize=9;whiteSpace=wrap;html=1;" vertex="1" parent="1">
          <mxGeometry x="690" y="260" width="70" height="20" as="geometry" />
        </mxCell>
        <mxCell id="Y2lKxQfsMpX_afz4rOUs-34" value="Edad" style="ellipse;align=center;fontStyle=0;fontSize=9;whiteSpace=wrap;html=1;" vertex="1" parent="1">
          <mxGeometry x="690" y="290" width="70" height="20" as="geometry" />
        </mxCell>
        <mxCell id="Y2lKxQfsMpX_afz4rOUs-35" value="&lt;div&gt;Identificacion&lt;/div&gt;" style="ellipse;align=center;fontStyle=0;fontSize=9;whiteSpace=wrap;html=1;" vertex="1" parent="1">
          <mxGeometry x="690" y="320" width="70" height="20" as="geometry" />
        </mxCell>
        <mxCell id="Y2lKxQfsMpX_afz4rOUs-36" style="edgeStyle=orthogonalEdgeStyle;rounded=0;orthogonalLoop=1;jettySize=auto;html=1;strokeColor=#000000;entryX=0.5;entryY=1;entryDx=0;entryDy=0;endArrow=none;startFill=0;" edge="1" parent="1" target="Y2lKxQfsMpX_afz4rOUs-4">
          <mxGeometry relative="1" as="geometry">
            <mxPoint x="690" y="330" as="sourcePoint" />
            <mxPoint x="630" y="360" as="targetPoint" />
          </mxGeometry>
        </mxCell>
        <mxCell id="Y2lKxQfsMpX_afz4rOUs-37" style="edgeStyle=orthogonalEdgeStyle;rounded=0;orthogonalLoop=1;jettySize=auto;html=1;strokeColor=#000000;endArrow=none;startFill=0;" edge="1" parent="1">
          <mxGeometry relative="1" as="geometry">
            <mxPoint x="690" y="300" as="sourcePoint" />
            <mxPoint x="670" y="300.12" as="targetPoint" />
          </mxGeometry>
        </mxCell>
        <mxCell id="Y2lKxQfsMpX_afz4rOUs-38" style="edgeStyle=orthogonalEdgeStyle;rounded=0;orthogonalLoop=1;jettySize=auto;html=1;strokeColor=#000000;entryX=1;entryY=0.25;entryDx=0;entryDy=0;endArrow=none;startFill=0;exitX=0;exitY=0.5;exitDx=0;exitDy=0;" edge="1" parent="1" source="Y2lKxQfsMpX_afz4rOUs-33" target="Y2lKxQfsMpX_afz4rOUs-4">
          <mxGeometry relative="1" as="geometry">
            <mxPoint x="700" y="270" as="sourcePoint" />
            <mxPoint x="680" y="270" as="targetPoint" />
            <Array as="points">
              <mxPoint x="680" y="270" />
              <mxPoint x="680" y="280" />
            </Array>
          </mxGeometry>
        </mxCell>
        <mxCell id="Y2lKxQfsMpX_afz4rOUs-39" style="edgeStyle=orthogonalEdgeStyle;rounded=0;orthogonalLoop=1;jettySize=auto;html=1;strokeColor=#000000;entryX=0.5;entryY=0;entryDx=0;entryDy=0;exitX=0;exitY=0.5;exitDx=0;exitDy=0;curved=0;endArrow=none;startFill=0;" edge="1" parent="1" source="Y2lKxQfsMpX_afz4rOUs-31" target="Y2lKxQfsMpX_afz4rOUs-4">
          <mxGeometry relative="1" as="geometry">
            <mxPoint x="700" y="340" as="sourcePoint" />
            <mxPoint x="630" y="320" as="targetPoint" />
          </mxGeometry>
        </mxCell>
        <mxCell id="Y2lKxQfsMpX_afz4rOUs-40" value="No. Viaje" style="ellipse;whiteSpace=wrap;html=1;align=center;fontStyle=4;fontSize=9;" vertex="1" parent="1">
          <mxGeometry x="190" y="300" width="70" height="20" as="geometry" />
        </mxCell>
        <mxCell id="Y2lKxQfsMpX_afz4rOUs-41" value="Origen" style="ellipse;align=center;fontStyle=0;fontSize=9;whiteSpace=wrap;html=1;" vertex="1" parent="1">
          <mxGeometry x="210" y="330" width="70" height="20" as="geometry" />
        </mxCell>
        <mxCell id="Y2lKxQfsMpX_afz4rOUs-42" value="Destino" style="ellipse;align=center;fontStyle=0;fontSize=9;whiteSpace=wrap;html=1;" vertex="1" parent="1">
          <mxGeometry x="210" y="360" width="70" height="20" as="geometry" />
        </mxCell>
        <mxCell id="Y2lKxQfsMpX_afz4rOUs-43" value="Salida" style="ellipse;align=center;fontStyle=0;fontSize=9;whiteSpace=wrap;html=1;" vertex="1" parent="1">
          <mxGeometry x="210" y="390" width="70" height="20" as="geometry" />
        </mxCell>
        <mxCell id="Y2lKxQfsMpX_afz4rOUs-44" style="edgeStyle=orthogonalEdgeStyle;rounded=0;orthogonalLoop=1;jettySize=auto;html=1;strokeColor=#000000;entryX=0;entryY=0.75;entryDx=0;entryDy=0;endArrow=none;startFill=0;exitX=1;exitY=0.5;exitDx=0;exitDy=0;" edge="1" parent="1" source="Y2lKxQfsMpX_afz4rOUs-43" target="Y2lKxQfsMpX_afz4rOUs-5">
          <mxGeometry relative="1" as="geometry">
            <mxPoint x="210" y="410" as="sourcePoint" />
            <mxPoint x="140" y="390" as="targetPoint" />
            <Array as="points">
              <mxPoint x="290" y="400" />
              <mxPoint x="290" y="380" />
            </Array>
          </mxGeometry>
        </mxCell>
        <mxCell id="Y2lKxQfsMpX_afz4rOUs-45" style="edgeStyle=orthogonalEdgeStyle;rounded=0;orthogonalLoop=1;jettySize=auto;html=1;strokeColor=#000000;endArrow=none;startFill=0;entryX=0;entryY=0.5;entryDx=0;entryDy=0;" edge="1" parent="1" target="Y2lKxQfsMpX_afz4rOUs-5">
          <mxGeometry relative="1" as="geometry">
            <mxPoint x="280" y="370" as="sourcePoint" />
            <mxPoint x="190" y="380.12" as="targetPoint" />
          </mxGeometry>
        </mxCell>
        <mxCell id="Y2lKxQfsMpX_afz4rOUs-46" style="edgeStyle=orthogonalEdgeStyle;rounded=0;orthogonalLoop=1;jettySize=auto;html=1;strokeColor=#000000;entryX=0;entryY=0.25;entryDx=0;entryDy=0;endArrow=none;startFill=0;exitX=1;exitY=0.5;exitDx=0;exitDy=0;" edge="1" parent="1" source="Y2lKxQfsMpX_afz4rOUs-41" target="Y2lKxQfsMpX_afz4rOUs-5">
          <mxGeometry relative="1" as="geometry">
            <mxPoint x="209.97" y="349.97" as="sourcePoint" />
            <mxPoint x="179.97" y="359.97" as="targetPoint" />
            <Array as="points">
              <mxPoint x="307" y="340" />
              <mxPoint x="307" y="360" />
            </Array>
          </mxGeometry>
        </mxCell>
        <mxCell id="Y2lKxQfsMpX_afz4rOUs-47" style="edgeStyle=orthogonalEdgeStyle;rounded=0;orthogonalLoop=1;jettySize=auto;html=1;strokeColor=#000000;entryX=0.25;entryY=0;entryDx=0;entryDy=0;exitX=1;exitY=0.5;exitDx=0;exitDy=0;curved=0;endArrow=none;startFill=0;" edge="1" parent="1" source="Y2lKxQfsMpX_afz4rOUs-40" target="Y2lKxQfsMpX_afz4rOUs-5">
          <mxGeometry relative="1" as="geometry">
            <mxPoint x="220" y="420" as="sourcePoint" />
            <mxPoint x="140" y="350" as="targetPoint" />
          </mxGeometry>
        </mxCell>
        <mxCell id="Y2lKxQfsMpX_afz4rOUs-48" value="Llegada" style="ellipse;align=center;fontStyle=0;fontSize=9;whiteSpace=wrap;html=1;" vertex="1" parent="1">
          <mxGeometry x="210" y="420" width="70" height="20" as="geometry" />
        </mxCell>
        <mxCell id="Y2lKxQfsMpX_afz4rOUs-51" style="edgeStyle=orthogonalEdgeStyle;rounded=0;orthogonalLoop=1;jettySize=auto;html=1;strokeColor=#000000;entryX=0;entryY=0.75;entryDx=0;entryDy=0;endArrow=none;startFill=0;exitX=1;exitY=0.5;exitDx=0;exitDy=0;" edge="1" parent="1" source="Y2lKxQfsMpX_afz4rOUs-48">
          <mxGeometry relative="1" as="geometry">
            <mxPoint x="290" y="410" as="sourcePoint" />
            <mxPoint x="320" y="390" as="targetPoint" />
            <Array as="points">
              <mxPoint x="280" y="410" />
              <mxPoint x="320" y="410" />
            </Array>
          </mxGeometry>
        </mxCell>
        <mxCell id="Y2lKxQfsMpX_afz4rOUs-54" value="&lt;div&gt;N : M&lt;/div&gt;" style="text;html=1;align=center;verticalAlign=middle;resizable=0;points=[];autosize=1;strokeColor=none;fillColor=none;" vertex="1" parent="1">
          <mxGeometry x="445" y="228" width="50" height="30" as="geometry" />
        </mxCell>
        <mxCell id="Y2lKxQfsMpX_afz4rOUs-56" value="1&amp;nbsp; : N" style="text;html=1;align=center;verticalAlign=middle;resizable=0;points=[];autosize=1;strokeColor=none;fillColor=none;" vertex="1" parent="1">
          <mxGeometry x="335" y="488" width="50" height="30" as="geometry" />
        </mxCell>
        <mxCell id="Y2lKxQfsMpX_afz4rOUs-57" value="Crea" style="shape=rhombus;perimeter=rhombusPerimeter;whiteSpace=wrap;html=1;align=center;" vertex="1" parent="1">
          <mxGeometry x="290" y="680" width="120" height="60" as="geometry" />
        </mxCell>
        <mxCell id="Y2lKxQfsMpX_afz4rOUs-58" value="&lt;div&gt;1 : N&lt;/div&gt;" style="text;html=1;align=center;verticalAlign=middle;resizable=0;points=[];autosize=1;strokeColor=none;fillColor=none;" vertex="1" parent="1">
          <mxGeometry x="410" y="695" width="50" height="30" as="geometry" />
        </mxCell>
        <mxCell id="Y2lKxQfsMpX_afz4rOUs-59" value="&lt;font style=&quot;font-size: 9px;&quot;&gt;(1,n)&lt;/font&gt;" style="text;html=1;align=center;verticalAlign=middle;resizable=0;points=[];autosize=1;strokeColor=none;fillColor=none;" vertex="1" parent="1">
          <mxGeometry x="540" y="290" width="40" height="30" as="geometry" />
        </mxCell>
        <mxCell id="Y2lKxQfsMpX_afz4rOUs-61" value="&lt;font style=&quot;font-size: 9px;&quot;&gt;(1,n)&lt;/font&gt;" style="text;html=1;align=center;verticalAlign=middle;resizable=0;points=[];autosize=1;strokeColor=none;fillColor=none;" vertex="1" parent="1">
          <mxGeometry x="380" y="325" width="40" height="30" as="geometry" />
        </mxCell>
        <mxCell id="Y2lKxQfsMpX_afz4rOUs-62" value="&lt;font style=&quot;font-size: 9px;&quot;&gt;(1,n)&lt;/font&gt;" style="text;html=1;align=center;verticalAlign=middle;resizable=0;points=[];autosize=1;strokeColor=none;fillColor=none;" vertex="1" parent="1">
          <mxGeometry x="380" y="380" width="40" height="30" as="geometry" />
        </mxCell>
        <mxCell id="Y2lKxQfsMpX_afz4rOUs-65" value="&lt;font style=&quot;font-size: 9px;&quot;&gt;(1,n)&lt;/font&gt;" style="text;html=1;align=center;verticalAlign=middle;resizable=0;points=[];autosize=1;strokeColor=none;fillColor=none;" vertex="1" parent="1">
          <mxGeometry x="370" y="760" width="40" height="30" as="geometry" />
        </mxCell>
        <mxCell id="Y2lKxQfsMpX_afz4rOUs-74" style="edgeStyle=orthogonalEdgeStyle;rounded=0;orthogonalLoop=1;jettySize=auto;html=1;entryX=0.75;entryY=0;entryDx=0;entryDy=0;endArrow=none;startFill=0;" edge="1" parent="1" source="Y2lKxQfsMpX_afz4rOUs-68" target="Y2lKxQfsMpX_afz4rOUs-3">
          <mxGeometry relative="1" as="geometry">
            <Array as="points">
              <mxPoint x="465" y="510" />
            </Array>
          </mxGeometry>
        </mxCell>
        <mxCell id="Y2lKxQfsMpX_afz4rOUs-68" value="Ubicacion" style="ellipse;whiteSpace=wrap;html=1;align=center;fontStyle=4;fontSize=9;" vertex="1" parent="1">
          <mxGeometry x="490" y="500" width="70" height="20" as="geometry" />
        </mxCell>
        <mxCell id="Y2lKxQfsMpX_afz4rOUs-69" value="&lt;div&gt;Nombre&lt;/div&gt;" style="ellipse;align=center;fontStyle=0;fontSize=9;whiteSpace=wrap;html=1;" vertex="1" parent="1">
          <mxGeometry x="510" y="530" width="70" height="20" as="geometry" />
        </mxCell>
        <mxCell id="Y2lKxQfsMpX_afz4rOUs-70" value="CP" style="ellipse;align=center;fontStyle=0;fontSize=9;whiteSpace=wrap;html=1;" vertex="1" parent="1">
          <mxGeometry x="510" y="570" width="70" height="20" as="geometry" />
        </mxCell>
        <mxCell id="Y2lKxQfsMpX_afz4rOUs-72" style="edgeStyle=orthogonalEdgeStyle;rounded=0;orthogonalLoop=1;jettySize=auto;html=1;strokeColor=#000000;endArrow=none;startFill=0;" edge="1" parent="1">
          <mxGeometry relative="1" as="geometry">
            <mxPoint x="510" y="580" as="sourcePoint" />
            <mxPoint x="490" y="580.12" as="targetPoint" />
          </mxGeometry>
        </mxCell>
        <mxCell id="Y2lKxQfsMpX_afz4rOUs-73" style="edgeStyle=orthogonalEdgeStyle;rounded=0;orthogonalLoop=1;jettySize=auto;html=1;strokeColor=#000000;entryX=1;entryY=0.25;entryDx=0;entryDy=0;endArrow=none;startFill=0;exitX=0;exitY=0.5;exitDx=0;exitDy=0;" edge="1" parent="1" source="Y2lKxQfsMpX_afz4rOUs-69">
          <mxGeometry relative="1" as="geometry">
            <mxPoint x="520" y="550" as="sourcePoint" />
            <mxPoint x="490" y="560" as="targetPoint" />
            <Array as="points">
              <mxPoint x="500" y="550" />
              <mxPoint x="500" y="560" />
            </Array>
          </mxGeometry>
        </mxCell>
        <mxCell id="Y2lKxQfsMpX_afz4rOUs-80" style="edgeStyle=orthogonalEdgeStyle;rounded=0;orthogonalLoop=1;jettySize=auto;html=1;entryX=0.25;entryY=0;entryDx=0;entryDy=0;endArrow=none;startFill=0;" edge="1" parent="1" source="Y2lKxQfsMpX_afz4rOUs-75" target="Y2lKxQfsMpX_afz4rOUs-6">
          <mxGeometry relative="1" as="geometry">
            <Array as="points">
              <mxPoint x="235" y="508" />
            </Array>
          </mxGeometry>
        </mxCell>
        <mxCell id="Y2lKxQfsMpX_afz4rOUs-75" value="Placa" style="ellipse;whiteSpace=wrap;html=1;align=center;fontStyle=4;fontSize=9;" vertex="1" parent="1">
          <mxGeometry x="140" y="498" width="70" height="20" as="geometry" />
        </mxCell>
        <mxCell id="Y2lKxQfsMpX_afz4rOUs-81" style="edgeStyle=orthogonalEdgeStyle;rounded=0;orthogonalLoop=1;jettySize=auto;html=1;entryX=0;entryY=0;entryDx=0;entryDy=0;endArrow=none;startFill=0;" edge="1" parent="1" source="Y2lKxQfsMpX_afz4rOUs-76" target="Y2lKxQfsMpX_afz4rOUs-6">
          <mxGeometry relative="1" as="geometry">
            <Array as="points">
              <mxPoint x="210" y="540" />
            </Array>
          </mxGeometry>
        </mxCell>
        <mxCell id="Y2lKxQfsMpX_afz4rOUs-76" value="Marca" style="ellipse;align=center;fontStyle=0;fontSize=9;whiteSpace=wrap;html=1;" vertex="1" parent="1">
          <mxGeometry x="110" y="530" width="70" height="20" as="geometry" />
        </mxCell>
        <mxCell id="Y2lKxQfsMpX_afz4rOUs-82" style="edgeStyle=orthogonalEdgeStyle;rounded=0;orthogonalLoop=1;jettySize=auto;html=1;entryX=0;entryY=0.5;entryDx=0;entryDy=0;endArrow=none;startFill=0;" edge="1" parent="1" source="Y2lKxQfsMpX_afz4rOUs-77" target="Y2lKxQfsMpX_afz4rOUs-6">
          <mxGeometry relative="1" as="geometry" />
        </mxCell>
        <mxCell id="Y2lKxQfsMpX_afz4rOUs-77" value="Empresa" style="ellipse;align=center;fontStyle=0;fontSize=9;whiteSpace=wrap;html=1;" vertex="1" parent="1">
          <mxGeometry x="110" y="560" width="70" height="20" as="geometry" />
        </mxCell>
        <mxCell id="Y2lKxQfsMpX_afz4rOUs-83" style="edgeStyle=orthogonalEdgeStyle;rounded=0;orthogonalLoop=1;jettySize=auto;html=1;entryX=0.25;entryY=1;entryDx=0;entryDy=0;endArrow=none;startFill=0;" edge="1" parent="1" source="Y2lKxQfsMpX_afz4rOUs-78" target="Y2lKxQfsMpX_afz4rOUs-6">
          <mxGeometry relative="1" as="geometry">
            <Array as="points">
              <mxPoint x="235" y="600" />
            </Array>
          </mxGeometry>
        </mxCell>
        <mxCell id="Y2lKxQfsMpX_afz4rOUs-78" value="Gasolina" style="ellipse;align=center;fontStyle=0;fontSize=9;whiteSpace=wrap;html=1;" vertex="1" parent="1">
          <mxGeometry x="110" y="590" width="70" height="20" as="geometry" />
        </mxCell>
        <mxCell id="Y2lKxQfsMpX_afz4rOUs-90" style="edgeStyle=orthogonalEdgeStyle;rounded=0;orthogonalLoop=1;jettySize=auto;html=1;entryX=0.5;entryY=1;entryDx=0;entryDy=0;endArrow=none;startFill=0;" edge="1" parent="1" source="Y2lKxQfsMpX_afz4rOUs-86" target="Y2lKxQfsMpX_afz4rOUs-2">
          <mxGeometry relative="1" as="geometry" />
        </mxCell>
        <mxCell id="Y2lKxQfsMpX_afz4rOUs-86" value="No. Transaccion" style="ellipse;whiteSpace=wrap;html=1;align=center;fontStyle=4;fontSize=9;" vertex="1" parent="1">
          <mxGeometry x="307.5" y="870" width="85" height="20" as="geometry" />
        </mxCell>
        <mxCell id="Y2lKxQfsMpX_afz4rOUs-89" style="edgeStyle=orthogonalEdgeStyle;rounded=0;orthogonalLoop=1;jettySize=auto;html=1;entryX=0;entryY=0.5;entryDx=0;entryDy=0;endArrow=none;startFill=0;" edge="1" parent="1" source="Y2lKxQfsMpX_afz4rOUs-87" target="Y2lKxQfsMpX_afz4rOUs-2">
          <mxGeometry relative="1" as="geometry" />
        </mxCell>
        <mxCell id="Y2lKxQfsMpX_afz4rOUs-87" value="Precio" style="ellipse;align=center;fontStyle=0;fontSize=9;whiteSpace=wrap;html=1;" vertex="1" parent="1">
          <mxGeometry x="230" y="850" width="70" height="20" as="geometry" />
        </mxCell>
        <mxCell id="Y2lKxQfsMpX_afz4rOUs-91" style="edgeStyle=orthogonalEdgeStyle;rounded=0;orthogonalLoop=1;jettySize=auto;html=1;entryX=1;entryY=0.5;entryDx=0;entryDy=0;endArrow=none;startFill=0;" edge="1" parent="1" source="Y2lKxQfsMpX_afz4rOUs-88" target="Y2lKxQfsMpX_afz4rOUs-2">
          <mxGeometry relative="1" as="geometry" />
        </mxCell>
        <mxCell id="Y2lKxQfsMpX_afz4rOUs-88" value="Cliente" style="ellipse;align=center;fontStyle=0;fontSize=9;whiteSpace=wrap;html=1;" vertex="1" parent="1">
          <mxGeometry x="400" y="850" width="70" height="20" as="geometry" />
        </mxCell>
      </root>
    </mxGraphModel>
  </diagram>
</mxfile>
